<svg viewBox="0 0 24 24" xmlns="http://www.w3.org/2000/svg">
  <defs>
    <radialGradient id="instagram-gradient" cx="30%" cy="107%">
      <stop offset="0%" stop-color="#fdf497"/>
      <stop offset="5%" stop-color="#fdf497"/>
      <stop offset="45%" stop-color="#fd5949"/>
      <stop offset="60%" stop-color="#d6249f"/>
      <stop offset="90%" stop-color="#285AEB"/>
    </radialGradient>
  </defs>
  <rect width="24" height="24" rx="6" fill="url(#instagram-gradient)"/>
  <path d="M12 7.5a4.5 4.5 0 100 9 4.5 4.5 0 000-9zm0 7.5a3 3 0 110-6 3 3 0 010 6zm5.85-7.65a1.05 1.05 0 11-2.1 0 1.05 1.05 0 012.1 0zM12 8.7a3.3 3.3 0 100 6.6 3.3 3.3 0 000-6.6zm0 5.4a2.1 2.1 0 110-4.2 2.1 2.1 0 010 4.2z" fill="white"/>
  <rect x="5.5" y="5.5" width="13" height="13" rx="4" fill="none" stroke="white" stroke-width="1.5"/>
  <circle cx="12" cy="12" r="3" fill="none" stroke="white" stroke-width="1.5"/>
  <circle cx="16.5" cy="7.5" r="0.75" fill="white"/>
</svg>